<svg width="265" height="87" viewBox="0 0 265 87" fill="none" xmlns="http://www.w3.org/2000/svg">
<path d="M171.821 51.2417H164.693V49.9761H167.541V40.1851L164.623 41.0552V39.6841L168.982 38.3569V49.9761H171.821V51.2417ZM181.779 51.2417H180.337V46.0562C180.337 44.1812 179.64 43.2437 178.246 43.2437C177.542 43.2437 176.951 43.5161 176.47 44.061C175.99 44.6001 175.75 45.2944 175.75 46.144V51.2417H174.308V37.9175H175.75V43.7358H175.785C176.476 42.5991 177.46 42.0308 178.738 42.0308C180.765 42.0308 181.779 43.2524 181.779 45.6958V51.2417ZM189.135 50.7759V49.2202C189.997 49.8999 190.969 50.2397 192.053 50.2397C192.932 50.2397 193.632 50.02 194.154 49.5806C194.681 49.1411 194.945 48.5493 194.945 47.8052C194.945 46.1587 193.776 45.3354 191.438 45.3354H190.392V44.1138H191.385C193.465 44.1138 194.505 43.3403 194.505 41.7935C194.505 40.3638 193.711 39.6489 192.124 39.6489C191.239 39.6489 190.404 39.9507 189.619 40.5542V39.1479C190.427 38.6675 191.382 38.4272 192.484 38.4272C193.544 38.4272 194.391 38.7085 195.024 39.271C195.663 39.8335 195.982 40.5542 195.982 41.4331C195.982 43.0913 195.138 44.1577 193.451 44.6323V44.6675C194.359 44.7554 195.08 45.0747 195.613 45.6255C196.152 46.1704 196.421 46.853 196.421 47.6733C196.421 48.8042 196.014 49.7183 195.2 50.4155C194.391 51.1069 193.322 51.4526 191.992 51.4526C190.796 51.4526 189.844 51.2271 189.135 50.7759ZM202.416 51.4526C201.167 51.4526 200.192 50.9165 199.489 49.8442C198.792 48.772 198.443 47.2222 198.443 45.1948C198.443 42.9683 198.806 41.2837 199.533 40.1411C200.265 38.9985 201.32 38.4272 202.697 38.4272C205.333 38.4272 206.652 40.5806 206.652 44.8872C206.652 47.02 206.28 48.6489 205.536 49.7739C204.792 50.8931 203.751 51.4526 202.416 51.4526ZM202.618 39.6489C200.819 39.6489 199.919 41.4741 199.919 45.1245C199.919 48.5347 200.801 50.2397 202.565 50.2397C204.305 50.2397 205.175 48.5054 205.175 45.0366C205.175 41.4448 204.323 39.6489 202.618 39.6489ZM221.628 51.2417H220.187V46.0737C220.187 45.0776 220.032 44.3569 219.721 43.9116C219.417 43.4663 218.901 43.2437 218.174 43.2437C217.559 43.2437 217.035 43.5249 216.601 44.0874C216.173 44.6499 215.959 45.3237 215.959 46.1089V51.2417H214.518V45.8979C214.518 44.1284 213.835 43.2437 212.47 43.2437C211.837 43.2437 211.316 43.5103 210.906 44.0435C210.496 44.5708 210.291 45.2593 210.291 46.1089V51.2417H208.849V42.2417H210.291V43.6655H210.326C210.964 42.5757 211.896 42.0308 213.121 42.0308C213.736 42.0308 214.272 42.2036 214.729 42.5493C215.186 42.8892 215.5 43.3374 215.669 43.894C216.337 42.6519 217.333 42.0308 218.658 42.0308C220.638 42.0308 221.628 43.2524 221.628 45.6958V51.2417Z" fill="#3D7FE0"/>
<path d="M175.055 28.2417H172.761L171.627 25.0337H166.67L165.581 28.2417H163.295L168.015 15.6382H170.371L175.055 28.2417ZM171.074 23.3286L169.325 18.3013C169.272 18.1372 169.216 17.8735 169.158 17.5103H169.123C169.07 17.8442 169.011 18.1079 168.947 18.3013L167.215 23.3286H171.074ZM184.75 28.2417H182.71V26.7124H182.675C182.019 27.8726 181.008 28.4526 179.643 28.4526C178.536 28.4526 177.648 28.0513 176.98 27.2485C176.318 26.4399 175.987 25.3413 175.987 23.9526C175.987 22.4644 176.353 21.272 177.085 20.3755C177.824 19.479 178.805 19.0308 180.03 19.0308C181.243 19.0308 182.125 19.5171 182.675 20.4897H182.71V14.9175H184.75V28.2417ZM182.737 24.1284V22.9507C182.737 22.312 182.529 21.77 182.113 21.3247C181.697 20.8794 181.167 20.6567 180.522 20.6567C179.76 20.6567 179.16 20.9409 178.72 21.5093C178.287 22.0776 178.07 22.8657 178.07 23.8735C178.07 24.7876 178.278 25.5112 178.694 26.0444C179.116 26.5718 179.681 26.8354 180.39 26.8354C181.087 26.8354 181.653 26.5806 182.086 26.0708C182.52 25.5552 182.737 24.9077 182.737 24.1284ZM188.441 17.3521C188.107 17.3521 187.82 17.2437 187.58 17.0269C187.345 16.8101 187.228 16.5347 187.228 16.2007C187.228 15.8667 187.345 15.5884 187.58 15.3657C187.82 15.1431 188.107 15.0317 188.441 15.0317C188.787 15.0317 189.08 15.1431 189.32 15.3657C189.56 15.5884 189.68 15.8667 189.68 16.2007C189.68 16.5171 189.56 16.7896 189.32 17.0181C189.08 17.2407 188.787 17.3521 188.441 17.3521ZM189.452 28.2417H187.413V19.2417H189.452V28.2417ZM194.549 15.3921L193.117 19.3032H191.772L192.765 15.3921H194.549ZM194.954 27.9604V26.0708C195.715 26.6509 196.556 26.9409 197.476 26.9409C198.707 26.9409 199.322 26.5776 199.322 25.8511C199.322 25.646 199.269 25.4731 199.164 25.3325C199.058 25.186 198.915 25.0571 198.733 24.9458C198.557 24.8345 198.346 24.7349 198.1 24.647C197.86 24.5591 197.59 24.4595 197.292 24.3481C196.922 24.2017 196.588 24.0464 196.29 23.8823C195.997 23.7183 195.75 23.5337 195.551 23.3286C195.358 23.1177 195.211 22.8804 195.112 22.6167C195.012 22.353 194.962 22.0454 194.962 21.6938C194.962 21.2603 195.065 20.8794 195.27 20.5513C195.475 20.2173 195.75 19.939 196.096 19.7163C196.442 19.4878 196.834 19.3179 197.274 19.2065C197.713 19.0894 198.167 19.0308 198.636 19.0308C199.468 19.0308 200.212 19.1567 200.869 19.4087V21.1929C200.236 20.7593 199.509 20.5425 198.689 20.5425C198.431 20.5425 198.197 20.5688 197.986 20.6216C197.781 20.6743 197.605 20.7476 197.458 20.8413C197.312 20.9351 197.198 21.0493 197.116 21.1841C197.034 21.313 196.993 21.4565 196.993 21.6147C196.993 21.8081 197.034 21.9722 197.116 22.1069C197.198 22.2417 197.318 22.3618 197.476 22.4673C197.64 22.5669 197.833 22.6606 198.056 22.7485C198.285 22.8306 198.545 22.9214 198.838 23.021C199.225 23.1792 199.571 23.3403 199.875 23.5044C200.186 23.6685 200.45 23.856 200.667 24.0669C200.883 24.272 201.05 24.5122 201.167 24.7876C201.285 25.0571 201.343 25.3794 201.343 25.7544C201.343 26.2114 201.238 26.6099 201.027 26.9497C200.816 27.2896 200.535 27.5708 200.183 27.7935C199.832 28.0161 199.424 28.1802 198.961 28.2856C198.504 28.397 198.021 28.4526 197.511 28.4526C196.527 28.4526 195.674 28.2886 194.954 27.9604ZM215.45 28.2417H208.471V15.6382H210.563V26.4751H215.45V28.2417ZM223.958 28.2417H221.98V26.8354H221.945C221.324 27.9136 220.413 28.4526 219.211 28.4526C218.327 28.4526 217.632 28.2124 217.128 27.7319C216.63 27.2515 216.381 26.6157 216.381 25.8247C216.381 24.1255 217.36 23.1353 219.317 22.854L221.989 22.4761C221.989 21.1929 221.379 20.5513 220.161 20.5513C219.088 20.5513 218.122 20.9204 217.26 21.6587V19.8745C218.209 19.312 219.305 19.0308 220.547 19.0308C222.821 19.0308 223.958 20.1499 223.958 22.3882V28.2417ZM221.989 23.8208L220.099 24.0845C219.513 24.1606 219.071 24.3042 218.772 24.5151C218.479 24.7202 218.333 25.0835 218.333 25.605C218.333 25.9858 218.467 26.2993 218.737 26.5454C219.012 26.7856 219.378 26.9058 219.835 26.9058C220.457 26.9058 220.969 26.689 221.374 26.2554C221.784 25.8159 221.989 25.2651 221.989 24.603V23.8208ZM228.528 26.9146H228.493V32.3813H226.454V19.2417H228.493V20.8237H228.528C229.225 19.6284 230.245 19.0308 231.586 19.0308C232.729 19.0308 233.62 19.4321 234.258 20.2349C234.897 21.0376 235.216 22.1157 235.216 23.4692C235.216 24.9692 234.856 26.1704 234.135 27.0728C233.415 27.9751 232.43 28.4263 231.182 28.4263C230.034 28.4263 229.149 27.9224 228.528 26.9146ZM228.475 23.3638V24.48C228.475 25.1362 228.683 25.6929 229.099 26.1499C229.521 26.6069 230.054 26.8354 230.699 26.8354C231.455 26.8354 232.046 26.5425 232.474 25.9565C232.908 25.3647 233.125 24.5415 233.125 23.4868C233.125 22.6021 232.922 21.9106 232.518 21.4126C232.12 20.9087 231.578 20.6567 230.892 20.6567C230.166 20.6567 229.58 20.9146 229.134 21.4302C228.695 21.9458 228.475 22.5903 228.475 23.3638ZM242.045 28.145C241.647 28.3442 241.123 28.4438 240.472 28.4438C238.726 28.4438 237.853 27.606 237.853 25.9302V20.8413H236.35V19.2417H237.853V17.1587L239.892 16.5786V19.2417H242.045V20.8413H239.892V25.3413C239.892 25.8745 239.989 26.2554 240.182 26.4839C240.375 26.7124 240.698 26.8267 241.149 26.8267C241.495 26.8267 241.793 26.7271 242.045 26.5278V28.145ZM247.688 28.4526C246.299 28.4526 245.189 28.0337 244.357 27.1958C243.531 26.3521 243.118 25.2358 243.118 23.8472C243.118 22.3354 243.548 21.1548 244.41 20.3052C245.277 19.4556 246.443 19.0308 247.908 19.0308C249.314 19.0308 250.41 19.4438 251.195 20.27C251.98 21.0962 252.373 22.2417 252.373 23.7065C252.373 25.1421 251.948 26.2935 251.098 27.1606C250.254 28.022 249.118 28.4526 247.688 28.4526ZM247.785 20.6567C246.988 20.6567 246.358 20.9351 245.895 21.4917C245.432 22.0483 245.201 22.8159 245.201 23.7944C245.201 24.7378 245.435 25.4819 245.904 26.0269C246.373 26.5659 247 26.8354 247.785 26.8354C248.587 26.8354 249.203 26.5688 249.63 26.0356C250.064 25.5024 250.281 24.7437 250.281 23.7593C250.281 22.769 250.064 22.0044 249.63 21.4653C249.203 20.9263 248.587 20.6567 247.785 20.6567ZM256.53 26.9146H256.495V32.3813H254.456V19.2417H256.495V20.8237H256.53C257.227 19.6284 258.247 19.0308 259.588 19.0308C260.731 19.0308 261.622 19.4321 262.26 20.2349C262.899 21.0376 263.218 22.1157 263.218 23.4692C263.218 24.9692 262.858 26.1704 262.137 27.0728C261.417 27.9751 260.432 28.4263 259.184 28.4263C258.036 28.4263 257.151 27.9224 256.53 26.9146ZM256.477 23.3638V24.48C256.477 25.1362 256.685 25.6929 257.101 26.1499C257.523 26.6069 258.056 26.8354 258.701 26.8354C259.457 26.8354 260.048 26.5425 260.476 25.9565C260.91 25.3647 261.126 24.5415 261.126 23.4868C261.126 22.6021 260.924 21.9106 260.52 21.4126C260.122 20.9087 259.58 20.6567 258.894 20.6567C258.167 20.6567 257.582 20.9146 257.136 21.4302C256.697 21.9458 256.477 22.5903 256.477 23.3638Z" fill="black"/>
<g clip-path="url(#clip0)">
<path d="M138.57 77.8444H132.614V4.53687C132.614 2.17211 130.693 0.241699 128.339 0.241699H11.0009C8.64738 0.241699 6.72616 2.17211 6.72616 4.53687V77.8444H0.722361C0.386148 77.8444 0.145996 78.0857 0.145996 78.4235V81.0778C0.145996 82.4291 0.866452 83.7804 2.2113 84.7939C3.41206 85.7108 4.90101 86.2417 6.29389 86.2417H133.094C134.487 86.2417 135.976 85.7108 137.177 84.7939C138.474 83.7804 139.242 82.4774 139.242 81.0778V78.4235C139.146 78.0857 138.906 77.8444 138.57 77.8444ZM11.0009 1.39995H128.339C129.204 1.39995 129.972 1.73777 130.549 2.3169C131.125 2.89602 131.461 3.66819 131.461 4.53687V77.8444H7.87889V4.53687C7.87889 3.66819 8.21511 2.89602 8.79147 2.3169C9.3198 1.78603 10.1363 1.39995 11.0009 1.39995ZM7.30253 79.0026H132.038H137.993V80.4987H1.29873V79.0026H7.30253ZM137.897 81.657C137.705 82.4774 137.129 83.2496 136.312 83.8769C135.352 84.6008 134.103 85.0835 132.998 85.0835H6.19783C5.09313 85.0835 3.84434 84.6008 2.88373 83.8769C2.11524 83.2978 1.49085 82.5257 1.29873 81.657H137.897Z" fill="#414042"/>
<path d="M13.6423 73.5487H125.601C125.937 73.5487 126.178 73.3074 126.178 72.9696V7.86636C126.178 7.52853 125.937 7.28723 125.601 7.28723H13.6423C13.3061 7.28723 13.066 7.52853 13.066 7.86636V72.9696C13.066 73.3074 13.3542 73.5487 13.6423 73.5487ZM14.2667 72.3905V8.44548H125.073V72.3905H14.2667Z" fill="#414042"/>
</g>
<defs>
<clipPath id="clip0">
<rect width="139" height="86" fill="white" transform="translate(0.145996 0.241699)"/>
</clipPath>
</defs>
</svg>
