<svg width="172" height="85" viewBox="0 0 172 85" fill="none" xmlns="http://www.w3.org/2000/svg">
<path d="M84.634 53.9692H83.0168V57.3179H81.593V53.9692H75.6692V53.0288L81.2766 44.7144H83.0168V52.8003H84.634V53.9692ZM81.593 52.8003V47.3511C81.593 46.9644 81.6047 46.5308 81.6282 46.0503H81.593C81.511 46.2612 81.3499 46.5835 81.1096 47.0171L77.2336 52.8003H81.593ZM89.9778 57.5288C88.7297 57.5288 87.7542 56.9927 87.051 55.9204C86.3538 54.8481 86.0051 53.2983 86.0051 51.271C86.0051 49.0444 86.3684 47.3599 87.095 46.2173C87.8274 45.0747 88.8821 44.5034 90.259 44.5034C92.8958 44.5034 94.2141 46.6567 94.2141 50.9634C94.2141 53.0962 93.842 54.7251 93.0979 55.8501C92.3538 56.9692 91.3137 57.5288 89.9778 57.5288ZM90.1799 45.7251C88.3811 45.7251 87.4817 47.5503 87.4817 51.2007C87.4817 54.6108 88.3635 56.3159 90.1272 56.3159C91.8674 56.3159 92.7375 54.5815 92.7375 51.1128C92.7375 47.521 91.885 45.7251 90.1799 45.7251ZM109.191 57.3179H107.749V52.1499C107.749 51.1538 107.594 50.4331 107.283 49.9878C106.979 49.5425 106.463 49.3198 105.737 49.3198C105.121 49.3198 104.597 49.6011 104.163 50.1636C103.736 50.7261 103.522 51.3999 103.522 52.1851V57.3179H102.08V51.9741C102.08 50.2046 101.398 49.3198 100.032 49.3198C99.3997 49.3198 98.8782 49.5864 98.468 50.1196C98.0579 50.647 97.8528 51.3354 97.8528 52.1851V57.3179H96.4114V48.3179H97.8528V49.7417H97.8879C98.5266 48.6519 99.4583 48.1069 100.683 48.1069C101.298 48.1069 101.834 48.2798 102.291 48.6255C102.748 48.9653 103.062 49.4136 103.232 49.9702C103.9 48.728 104.896 48.1069 106.22 48.1069C108.2 48.1069 109.191 49.3286 109.191 51.772V57.3179Z" fill="#3D7FE0"/>
<path d="M87.4553 34.3179H85.1614L84.0276 31.1099H79.0706L77.9807 34.3179H75.6956L80.4153 21.7144H82.7708L87.4553 34.3179ZM83.4739 29.4048L81.7249 24.3774C81.6721 24.2134 81.6165 23.9497 81.5579 23.5864H81.5227C81.47 23.9204 81.4114 24.1841 81.3469 24.3774L79.6155 29.4048H83.4739ZM97.1497 34.3179H95.1106V32.7886H95.0754C94.4192 33.9487 93.4084 34.5288 92.0432 34.5288C90.9358 34.5288 90.0481 34.1274 89.3801 33.3247C88.718 32.5161 88.387 31.4175 88.387 30.0288C88.387 28.5405 88.7532 27.3481 89.4856 26.4517C90.2239 25.5552 91.2053 25.1069 92.4299 25.1069C93.6428 25.1069 94.5247 25.5933 95.0754 26.5659H95.1106V20.9937H97.1497V34.3179ZM95.137 30.2046V29.0269C95.137 28.3882 94.929 27.8462 94.5129 27.4009C94.0969 26.9556 93.5667 26.7329 92.9221 26.7329C92.1604 26.7329 91.5598 27.0171 91.1204 27.5854C90.6868 28.1538 90.47 28.9419 90.47 29.9497C90.47 30.8638 90.678 31.5874 91.094 32.1206C91.5159 32.6479 92.0813 32.9116 92.7903 32.9116C93.4875 32.9116 94.053 32.6567 94.4866 32.147C94.9202 31.6313 95.137 30.9839 95.137 30.2046ZM100.841 23.4282C100.507 23.4282 100.22 23.3198 99.9797 23.103C99.7454 22.8862 99.6282 22.6108 99.6282 22.2769C99.6282 21.9429 99.7454 21.6646 99.9797 21.4419C100.22 21.2192 100.507 21.1079 100.841 21.1079C101.187 21.1079 101.48 21.2192 101.72 21.4419C101.96 21.6646 102.08 21.9429 102.08 22.2769C102.08 22.5933 101.96 22.8657 101.72 23.0942C101.48 23.3169 101.187 23.4282 100.841 23.4282ZM101.852 34.3179H99.8127V25.3179H101.852V34.3179ZM106.949 21.4683L105.517 25.3794H104.172L105.165 21.4683H106.949ZM107.354 34.0366V32.147C108.115 32.7271 108.956 33.0171 109.876 33.0171C111.107 33.0171 111.722 32.6538 111.722 31.9272C111.722 31.7222 111.669 31.5493 111.564 31.4087C111.458 31.2622 111.315 31.1333 111.133 31.022C110.957 30.9106 110.746 30.811 110.5 30.7231C110.26 30.6353 109.99 30.5356 109.692 30.4243C109.323 30.2778 108.989 30.1226 108.69 29.9585C108.397 29.7944 108.151 29.6099 107.951 29.4048C107.758 29.1938 107.612 28.9565 107.512 28.6929C107.412 28.4292 107.363 28.1216 107.363 27.77C107.363 27.3364 107.465 26.9556 107.67 26.6274C107.875 26.2935 108.151 26.0151 108.496 25.7925C108.842 25.564 109.235 25.394 109.674 25.2827C110.114 25.1655 110.568 25.1069 111.036 25.1069C111.868 25.1069 112.613 25.2329 113.269 25.4849V27.269C112.636 26.8354 111.909 26.6187 111.089 26.6187C110.831 26.6187 110.597 26.645 110.386 26.6978C110.181 26.7505 110.005 26.8237 109.859 26.9175C109.712 27.0112 109.598 27.1255 109.516 27.2603C109.434 27.3892 109.393 27.5327 109.393 27.6909C109.393 27.8843 109.434 28.0483 109.516 28.1831C109.598 28.3179 109.718 28.438 109.876 28.5435C110.04 28.6431 110.234 28.7368 110.456 28.8247C110.685 28.9067 110.946 28.9976 111.239 29.0972C111.625 29.2554 111.971 29.4165 112.276 29.5806C112.586 29.7446 112.85 29.9321 113.067 30.1431C113.283 30.3481 113.45 30.5884 113.568 30.8638C113.685 31.1333 113.743 31.4556 113.743 31.8306C113.743 32.2876 113.638 32.686 113.427 33.0259C113.216 33.3657 112.935 33.647 112.583 33.8696C112.232 34.0923 111.824 34.2563 111.362 34.3618C110.905 34.4731 110.421 34.5288 109.911 34.5288C108.927 34.5288 108.074 34.3647 107.354 34.0366ZM122.954 29.7476V34.3179H120.871V21.7144H124.695C126.142 21.7144 127.264 22.0513 128.061 22.7251C128.858 23.3989 129.256 24.3481 129.256 25.5728C129.256 26.7974 128.84 27.7993 128.008 28.5786C127.176 29.3579 126.051 29.7476 124.633 29.7476H122.954ZM122.954 23.437V28.0425H124.308C125.204 28.0425 125.887 27.8345 126.356 27.4185C126.824 27.0024 127.059 26.4165 127.059 25.6606C127.059 24.1782 126.198 23.437 124.475 23.437H122.954ZM139.17 34.3179H137.131V29.396C137.131 27.6147 136.536 26.7241 135.347 26.7241C134.749 26.7241 134.245 26.9819 133.835 27.4976C133.425 28.0132 133.22 28.6724 133.22 29.4751V34.3179H131.172V20.9937H133.22V26.812H133.255C133.935 25.6753 134.907 25.1069 136.173 25.1069C138.171 25.1069 139.17 26.3286 139.17 28.772V34.3179ZM145.639 34.5288C144.25 34.5288 143.14 34.1099 142.308 33.272C141.482 32.4282 141.069 31.312 141.069 29.9233C141.069 28.4116 141.499 27.231 142.361 26.3813C143.228 25.5317 144.394 25.1069 145.859 25.1069C147.265 25.1069 148.361 25.52 149.146 26.3462C149.931 27.1724 150.323 28.3179 150.323 29.7827C150.323 31.2183 149.899 32.3696 149.049 33.2368C148.205 34.0981 147.069 34.5288 145.639 34.5288ZM145.736 26.7329C144.939 26.7329 144.309 27.0112 143.846 27.5679C143.383 28.1245 143.152 28.8921 143.152 29.8706C143.152 30.814 143.386 31.5581 143.855 32.103C144.323 32.6421 144.95 32.9116 145.736 32.9116C146.538 32.9116 147.154 32.645 147.581 32.1118C148.015 31.5786 148.232 30.8198 148.232 29.8354C148.232 28.8452 148.015 28.0806 147.581 27.5415C147.154 27.0024 146.538 26.7329 145.736 26.7329ZM160.422 34.3179H158.383V29.2466C158.383 27.5649 157.788 26.7241 156.599 26.7241C155.978 26.7241 155.465 26.9585 155.061 27.4272C154.656 27.8901 154.454 28.4761 154.454 29.1851V34.3179H152.406V25.3179H154.454V26.812H154.49C155.163 25.6753 156.136 25.1069 157.407 25.1069C158.386 25.1069 159.133 25.4263 159.649 26.0649C160.164 26.6978 160.422 27.6147 160.422 28.8159V34.3179ZM170.538 30.3716H164.404C164.427 31.2036 164.682 31.8452 165.168 32.2964C165.66 32.7476 166.334 32.9731 167.19 32.9731C168.151 32.9731 169.032 32.686 169.835 32.1118V33.7554C169.015 34.271 167.931 34.5288 166.583 34.5288C165.259 34.5288 164.219 34.1216 163.463 33.3071C162.713 32.4868 162.338 31.3354 162.338 29.853C162.338 28.4526 162.751 27.313 163.577 26.4341C164.409 25.5493 165.441 25.1069 166.671 25.1069C167.902 25.1069 168.854 25.5024 169.528 26.2935C170.201 27.0845 170.538 28.1831 170.538 29.5894V30.3716ZM168.57 28.9302C168.564 28.1978 168.391 27.6294 168.051 27.2251C167.711 26.8149 167.242 26.6099 166.645 26.6099C166.059 26.6099 165.561 26.8237 165.151 27.2515C164.746 27.6792 164.497 28.2388 164.404 28.9302H168.57Z" fill="black"/>
<g clip-path="url(#clip0)">
<path d="M39.8022 0.317871H5.29008C2.68091 0.317871 0.546143 2.48096 0.546143 5.12474V79.511C0.546143 82.1548 2.68091 84.3179 5.29008 84.3179H39.8022C42.4114 84.3179 44.5461 82.1548 44.5461 79.511V5.12474C44.5461 2.48096 42.4114 0.317871 39.8022 0.317871ZM39.8022 82.8758H5.29008C4.40059 82.8758 3.5704 82.5153 2.97741 81.9144C2.38442 81.3136 2.02862 80.4724 2.02862 79.5711V5.12474C2.02862 4.22345 2.38442 3.38225 2.97741 2.78139C3.5704 2.18053 4.40059 1.82002 5.29008 1.82002H39.8022C40.6917 1.82002 41.5219 2.18053 42.1149 2.78139C42.7079 3.38225 43.0637 4.22345 43.0637 5.12474V79.511C43.0637 80.4123 42.7079 81.2535 42.1149 81.8543C41.5219 82.5153 40.6917 82.8758 39.8022 82.8758Z" fill="#414042"/>
<path d="M25.7482 76.1467H19.3439C18.2172 76.1467 17.3277 77.048 17.3277 78.1897C17.3277 79.3313 18.2172 80.2326 19.3439 80.2326H25.7482C26.8749 80.2326 27.7644 79.3313 27.7644 78.1897C27.7644 77.1081 26.8749 76.1467 25.7482 76.1467ZM25.7482 78.8506H19.3439C19.0474 78.8506 18.7509 78.6103 18.7509 78.2497C18.7509 77.9493 18.9881 77.6489 19.3439 77.6489H25.7482C26.0447 77.6489 26.3412 77.8892 26.3412 78.2497C26.3412 78.5502 26.0447 78.8506 25.7482 78.8506Z" fill="#414042"/>
<path d="M40.5731 7.047H4.51915C4.10405 7.047 3.80756 7.34743 3.80756 7.76803V73.8024C3.80756 74.223 4.10405 74.5234 4.51915 74.5234H40.5138C40.9288 74.5234 41.2253 74.223 41.2253 73.8024V7.76803C41.2846 7.34743 40.9288 7.047 40.5731 7.047ZM39.8615 8.48906V73.0213H5.29004V8.48906H39.8615Z" fill="#414042"/>
</g>
<defs>
<clipPath id="clip0">
<rect x="0.546143" y="0.317871" width="44" height="84" fill="white"/>
</clipPath>
</defs>
</svg>
