<svg width="13" height="14" viewBox="0 0 13 14" fill="none" xmlns="http://www.w3.org/2000/svg">
<path d="M11.4486 1.55218C12.2893 2.39292 12.2893 3.75602 11.4486 4.59676L4.24826 11.7971C4.08169 11.9637 3.87453 12.0839 3.64726 12.1459L0.569578 12.9852C0.232748 13.0771 -0.0763197 12.768 0.0155428 12.4312L0.85491 9.35352C0.916892 9.12625 1.03711 8.91909 1.20368 8.75252L8.40402 1.55218C9.24476 0.711447 10.6079 0.711447 11.4486 1.55218ZM7.82075 3.41172L1.84179 9.39063C1.78627 9.44615 1.7462 9.51521 1.72554 9.59096L1.09393 11.9068L3.40981 11.2752C3.48557 11.2546 3.55462 11.2145 3.61015 11.159L9.5889 5.17987L7.82075 3.41172ZM9.04213 2.19029L8.45847 2.7734L10.2266 4.54216L10.8105 3.95865C11.2988 3.47033 11.2988 2.67861 10.8105 2.19029C10.3222 1.70198 9.53045 1.70198 9.04213 2.19029Z" fill="#022742"/>
</svg>
