<svg width="12" height="14" viewBox="0 0 12 14" fill="none" xmlns="http://www.w3.org/2000/svg">
<path d="M8.52632 6.66667C10.4448 6.66667 12 8.30829 12 10.3333C12 12.3584 10.4448 14 8.52632 14C6.60785 14 5.05263 12.3584 5.05263 10.3333C5.05263 8.30829 6.60785 6.66667 8.52632 6.66667ZM6.15789 0C6.94272 0 7.57895 0.671573 7.57895 1.5L7.57905 6.11593C7.24567 6.19905 6.92799 6.32507 6.63153 6.48817L6.63158 1.5C6.63158 1.22386 6.4195 1 6.15789 1H1.42105C1.15944 1 0.947368 1.22386 0.947368 1.5V11.8333C0.947368 12.1095 1.15944 12.3333 1.42105 12.3333L4.88385 12.334C5.06529 12.7013 5.29513 13.0378 5.56444 13.3339L1.42105 13.3333C0.636227 13.3333 0 12.6618 0 11.8333V1.5C0 0.671573 0.636227 0 1.42105 0H6.15789ZM8.52632 7.99949L8.46955 8.00486C8.34065 8.02956 8.23901 8.13684 8.21561 8.27291L8.21053 8.33282L8.2103 9.99949L6.63009 10L6.57333 10.0054C6.44443 10.0301 6.34279 10.1374 6.31939 10.2734L6.31431 10.3333L6.31939 10.3933C6.34279 10.5293 6.44443 10.6366 6.57333 10.6613L6.63009 10.6667L8.21094 10.6662L8.21123 12.3357L8.21631 12.3956C8.23971 12.5316 8.34135 12.6389 8.47025 12.6636L8.52702 12.669L8.58378 12.6636C8.71268 12.6389 8.81432 12.5316 8.83772 12.3956L8.8428 12.3357L8.84252 10.6662L10.4239 10.6667L10.4807 10.6613C10.6096 10.6366 10.7112 10.5293 10.7346 10.3933L10.7397 10.3333L10.7346 10.2734C10.7112 10.1374 10.6096 10.0301 10.4807 10.0054L10.4239 10L8.84188 9.99949L8.8421 8.33282L8.83702 8.27291C8.81362 8.13684 8.71198 8.02956 8.58308 8.00486L8.52632 7.99949ZM2.99929 10.3358L4.42105 10.3327C4.42105 10.6775 4.45906 11.0122 4.53088 11.3332L3.00071 11.3358C2.7391 11.3363 2.52671 11.1127 2.52631 10.8366C2.52592 10.5605 2.73768 10.3363 2.99929 10.3358Z" fill="#201F1E"/>
</svg>
