<svg width="12" height="14" viewBox="0 0 12 14" fill="none" xmlns="http://www.w3.org/2000/svg">
<path d="M7.2 2C7.2 1.33726 6.66274 0.8 6 0.8C5.33726 0.8 4.8 1.33726 4.8 2H4C4 0.895431 4.89543 0 6 0C7.10457 0 8 0.895431 8 2H11.6C11.8209 2 12 2.17909 12 2.4C12 2.62091 11.8209 2.8 11.6 2.8H11.1568L10.12 11.7834C10.0268 12.5907 9.3432 13.2 8.5305 13.2H3.4695C2.6568 13.2 1.9732 12.5907 1.88005 11.7834L0.8424 2.8H0.4C0.203632 2.8 0.0403133 2.6585 0.00644455 2.4719L0 2.4C0 2.17909 0.179086 2 0.4 2H7.2ZM10.3504 2.8H1.6488L2.67477 11.6917C2.72135 12.0954 3.06315 12.4 3.4695 12.4H8.5305C8.93685 12.4 9.27865 12.0954 9.32523 11.6917L10.3504 2.8ZM4.8 4.8C4.99637 4.8 5.15969 4.92381 5.19356 5.08709L5.2 5.15V10.05C5.2 10.2433 5.02091 10.4 4.8 10.4C4.60363 10.4 4.44031 10.2762 4.40644 10.1129L4.4 10.05V5.15C4.4 4.9567 4.57909 4.8 4.8 4.8ZM7.2 4.8C7.39637 4.8 7.55969 4.92381 7.59356 5.08709L7.6 5.15V10.05C7.6 10.2433 7.42091 10.4 7.2 10.4C7.00363 10.4 6.84031 10.2762 6.80644 10.1129L6.8 10.05V5.15C6.8 4.9567 6.97909 4.8 7.2 4.8Z" fill="#022742"/>
</svg>
