<svg width="159" height="42" viewBox="0 0 159 42" fill="none" xmlns="http://www.w3.org/2000/svg">
<rect x="1.646" y="1.5874" width="156" height="39" rx="4" fill="white"/>
<path d="M38.146 21.0874C41.1836 21.0874 43.646 23.5498 43.646 26.5874C43.646 29.625 41.1836 32.0874 38.146 32.0874C35.1084 32.0874 32.646 29.625 32.646 26.5874C32.646 23.5498 35.1084 21.0874 38.146 21.0874ZM34.396 11.0874C35.6386 11.0874 36.646 12.0948 36.646 13.3374L36.6462 20.2613C36.1183 20.386 35.6153 20.575 35.1459 20.8197L35.146 13.3374C35.146 12.9232 34.8102 12.5874 34.396 12.5874H26.896C26.4818 12.5874 26.146 12.9232 26.146 13.3374V28.8374C26.146 29.2516 26.4818 29.5874 26.896 29.5874L32.3788 29.5885C32.666 30.1394 33.03 30.644 33.4564 31.0882L26.896 31.0874C25.6534 31.0874 24.646 30.08 24.646 28.8374V13.3374C24.646 12.0948 25.6534 11.0874 26.896 11.0874H34.396ZM38.146 23.0866L38.0561 23.0947C37.852 23.1317 37.6911 23.2927 37.6541 23.4968L37.646 23.5866L37.6456 26.0866L35.1436 26.0874L35.0538 26.0955C34.8497 26.1325 34.6887 26.2934 34.6517 26.4975L34.6436 26.5874L34.6517 26.6773C34.6887 26.8814 34.8497 27.0423 35.0538 27.0793L35.1436 27.0874L37.6466 27.0866L37.6471 29.5909L37.6552 29.6808C37.6922 29.8849 37.8531 30.0458 38.0572 30.0828L38.1471 30.0909L38.237 30.0828C38.4411 30.0458 38.602 29.8849 38.639 29.6808L38.6471 29.5909L38.6466 27.0866L41.1506 27.0874L41.2404 27.0793C41.4445 27.0423 41.6055 26.8814 41.6425 26.6773L41.6506 26.5874L41.6425 26.4975C41.6055 26.2934 41.4445 26.1325 41.2404 26.0955L41.1506 26.0874L38.6456 26.0866L38.646 23.5866L38.6379 23.4968C38.6009 23.2927 38.44 23.1317 38.2359 23.0947L38.146 23.0866ZM29.3949 26.5912L31.646 26.5864C31.646 27.1036 31.7062 27.6058 31.8199 28.0872L29.3971 28.0912C28.9829 28.0918 28.6466 27.7565 28.646 27.3423C28.6454 26.9281 28.9807 26.5918 29.3949 26.5912Z" fill="#054DB9"/>
<path d="M64.6987 27.0874H62.9146L62.0327 24.5923H58.1772L57.3296 27.0874H55.5522L59.2231 17.2847H61.0552L64.6987 27.0874ZM61.6021 23.2661L60.2417 19.356C60.2007 19.2284 60.1574 19.0233 60.1118 18.7407H60.0845C60.0435 19.0005 59.9979 19.2056 59.9478 19.356L58.6011 23.2661H61.6021ZM72.2388 27.0874H70.6528V25.8979H70.6255C70.1151 26.8003 69.3289 27.2515 68.2671 27.2515C67.4058 27.2515 66.7153 26.9393 66.1958 26.3149C65.6808 25.686 65.4233 24.8315 65.4233 23.7515C65.4233 22.5939 65.7082 21.6665 66.2778 20.9692C66.8521 20.272 67.6154 19.9233 68.5679 19.9233C69.5112 19.9233 70.1971 20.3016 70.6255 21.0581H70.6528V16.7241H72.2388V27.0874ZM70.6733 23.8882V22.9722C70.6733 22.4754 70.5116 22.0539 70.188 21.7075C69.8644 21.3612 69.452 21.188 68.9507 21.188C68.3582 21.188 67.8911 21.409 67.5493 21.8511C67.2121 22.2931 67.0435 22.9061 67.0435 23.6899C67.0435 24.4009 67.2052 24.9637 67.5288 25.3784C67.8569 25.7886 68.2967 25.9937 68.8481 25.9937C69.3905 25.9937 69.8302 25.7954 70.1675 25.3989C70.5047 24.9979 70.6733 24.4943 70.6733 23.8882ZM80.6743 27.0874H79.0884V25.8979H79.061C78.5506 26.8003 77.7645 27.2515 76.7026 27.2515C75.8413 27.2515 75.1509 26.9393 74.6313 26.3149C74.1164 25.686 73.8589 24.8315 73.8589 23.7515C73.8589 22.5939 74.1437 21.6665 74.7134 20.9692C75.2876 20.272 76.0509 19.9233 77.0034 19.9233C77.9468 19.9233 78.6326 20.3016 79.061 21.0581H79.0884V16.7241H80.6743V27.0874ZM79.1089 23.8882V22.9722C79.1089 22.4754 78.9471 22.0539 78.6235 21.7075C78.3 21.3612 77.8875 21.188 77.3862 21.188C76.7938 21.188 76.3267 21.409 75.9849 21.8511C75.6476 22.2931 75.479 22.9061 75.479 23.6899C75.479 24.4009 75.6408 24.9637 75.9644 25.3784C76.2925 25.7886 76.7323 25.9937 77.2837 25.9937C77.826 25.9937 78.2658 25.7954 78.603 25.3989C78.9403 24.9979 79.1089 24.4943 79.1089 23.8882ZM86.7788 27.0874V17.2847H89.6089C93.2228 17.2847 95.0298 18.8774 95.0298 22.063C95.0298 23.576 94.5285 24.7928 93.5259 25.7134C92.5233 26.6294 91.1789 27.0874 89.4927 27.0874H86.7788ZM88.3989 18.6655V25.7134H89.6978C90.8416 25.7134 91.7303 25.3989 92.3638 24.77C93.0018 24.1411 93.3208 23.2524 93.3208 22.104C93.3208 19.8117 92.1336 18.6655 89.7593 18.6655H88.3989ZM102.577 24.0181H97.8052C97.8234 24.6652 98.0216 25.1642 98.3999 25.5151C98.7827 25.866 99.3068 26.0415 99.9722 26.0415C100.72 26.0415 101.405 25.8182 102.03 25.3716V26.6499C101.392 27.0509 100.549 27.2515 99.5005 27.2515C98.4705 27.2515 97.6616 26.9347 97.0737 26.3013C96.4904 25.6632 96.1987 24.7677 96.1987 23.6147C96.1987 22.5256 96.52 21.6392 97.1626 20.9556C97.8097 20.2674 98.6118 19.9233 99.5688 19.9233C100.526 19.9233 101.266 20.231 101.791 20.8462C102.315 21.4614 102.577 22.3159 102.577 23.4097V24.0181ZM101.045 22.897C101.041 22.3273 100.906 21.8853 100.642 21.5708C100.378 21.2518 100.013 21.0923 99.5483 21.0923C99.0926 21.0923 98.7052 21.2586 98.3862 21.5913C98.0718 21.924 97.8781 22.3592 97.8052 22.897H101.045ZM110.117 20.0874L107.41 27.0874H105.694L103.117 20.0874H104.839L106.391 24.9819C106.51 25.342 106.583 25.6564 106.61 25.9253H106.63C106.671 25.5881 106.735 25.2827 106.822 25.0093L108.449 20.0874H110.117ZM111.997 18.6177C111.737 18.6177 111.514 18.5334 111.327 18.3647C111.144 18.1961 111.053 17.9819 111.053 17.7222C111.053 17.4624 111.144 17.2459 111.327 17.0728C111.514 16.8996 111.737 16.813 111.997 16.813C112.265 16.813 112.493 16.8996 112.68 17.0728C112.867 17.2459 112.96 17.4624 112.96 17.7222C112.96 17.9683 112.867 18.1802 112.68 18.3579C112.493 18.5311 112.265 18.6177 111.997 18.6177ZM112.783 27.0874H111.197V20.0874H112.783V27.0874ZM119.872 26.7661C119.311 27.0897 118.648 27.2515 117.882 27.2515C116.843 27.2515 116.005 26.9279 115.367 26.2808C114.729 25.6291 114.41 24.786 114.41 23.7515C114.41 22.5985 114.751 21.6733 115.435 20.9761C116.123 20.2743 117.042 19.9233 118.19 19.9233C118.828 19.9233 119.391 20.035 119.878 20.2583V21.7349C119.391 21.3703 118.871 21.188 118.32 21.188C117.65 21.188 117.101 21.4159 116.672 21.8716C116.244 22.3228 116.03 22.9152 116.03 23.6489C116.03 24.3735 116.23 24.9455 116.631 25.3647C117.037 25.784 117.579 25.9937 118.258 25.9937C118.828 25.9937 119.366 25.7909 119.872 25.3853V26.7661ZM127.377 24.0181H122.606C122.624 24.6652 122.822 25.1642 123.201 25.5151C123.583 25.866 124.108 26.0415 124.773 26.0415C125.52 26.0415 126.206 25.8182 126.831 25.3716V26.6499C126.193 27.0509 125.349 27.2515 124.301 27.2515C123.271 27.2515 122.462 26.9347 121.875 26.3013C121.291 25.6632 121 24.7677 121 23.6147C121 22.5256 121.321 21.6392 121.963 20.9556C122.611 20.2674 123.413 19.9233 124.37 19.9233C125.327 19.9233 126.067 20.231 126.591 20.8462C127.115 21.4614 127.377 22.3159 127.377 23.4097V24.0181ZM125.846 22.897C125.842 22.3273 125.707 21.8853 125.443 21.5708C125.179 21.2518 124.814 21.0923 124.349 21.0923C123.893 21.0923 123.506 21.2586 123.187 21.5913C122.873 21.924 122.679 22.3592 122.606 22.897H125.846Z" fill="#054DB9"/>
<rect x="1.646" y="1.5874" width="156" height="39" rx="4" stroke="#054DB9" stroke-width="2"/>
</svg>
