<svg width="20" height="22" viewBox="0 0 20 22" fill="none" xmlns="http://www.w3.org/2000/svg">
<path d="M14.146 10.0874C17.1836 10.0874 19.646 12.5498 19.646 15.5874C19.646 18.625 17.1836 21.0874 14.146 21.0874C11.1084 21.0874 8.646 18.625 8.646 15.5874C8.646 12.5498 11.1084 10.0874 14.146 10.0874ZM10.396 0.0874023C11.6386 0.0874023 12.646 1.09476 12.646 2.3374L12.6462 9.2613C12.1183 9.38597 11.6153 9.575 11.1459 9.81965L11.146 2.3374C11.146 1.92319 10.8102 1.5874 10.396 1.5874H2.896C2.48178 1.5874 2.146 1.92319 2.146 2.3374V17.8374C2.146 18.2516 2.48178 18.5874 2.896 18.5874L8.37877 18.5885C8.66604 19.1394 9.02995 19.644 9.45636 20.0882L2.896 20.0874C1.65336 20.0874 0.645996 19.08 0.645996 17.8374V2.3374C0.645996 1.09476 1.65336 0.0874023 2.896 0.0874023H10.396ZM14.146 12.0866L14.0561 12.0947C13.852 12.1317 13.6911 12.2927 13.6541 12.4968L13.646 12.5866L13.6456 15.0866L11.1436 15.0874L11.0538 15.0955C10.8497 15.1325 10.6887 15.2934 10.6517 15.4975L10.6436 15.5874L10.6517 15.6773C10.6887 15.8814 10.8497 16.0423 11.0538 16.0793L11.1436 16.0874L13.6466 16.0866L13.6471 18.5909L13.6552 18.6808C13.6922 18.8849 13.8531 19.0458 14.0572 19.0828L14.1471 19.0909L14.237 19.0828C14.4411 19.0458 14.602 18.8849 14.639 18.6808L14.6471 18.5909L14.6466 16.0866L17.1506 16.0874L17.2404 16.0793C17.4445 16.0423 17.6055 15.8814 17.6425 15.6773L17.6506 15.5874L17.6425 15.4975C17.6055 15.2934 17.4445 15.1325 17.2404 15.0955L17.1506 15.0874L14.6456 15.0866L14.646 12.5866L14.6379 12.4968C14.6009 12.2927 14.44 12.1317 14.2359 12.0947L14.146 12.0866ZM5.39487 15.5912L7.646 15.5864C7.646 16.1036 7.70617 16.6058 7.81989 17.0872L5.39713 17.0912C4.98291 17.0918 4.64662 16.7565 4.646 16.3423C4.64537 15.9281 4.98065 15.5918 5.39487 15.5912Z" fill="#054DB9"/>
</svg>
