<svg width="266" height="95" viewBox="0 0 266 95" fill="none" xmlns="http://www.w3.org/2000/svg">
<rect x="0.555908" y="72.2456" width="265" height="21.7964" rx="10.8982" fill="#E4EFFF"/>
<path d="M0.555908 83.3179C0.555908 77.2427 5.48078 72.3179 11.5559 72.3179H78.5559V94.3179H11.5559C5.48078 94.3179 0.555908 89.393 0.555908 83.3179Z" fill="#2FED51"/>
<path d="M13.5559 16.9661C13.5559 20.1119 12.0663 21.6848 9.08716 21.6848C6.23299 21.6848 4.80591 20.1718 4.80591 17.1458V10.2942H6.66528V16.7629C6.66528 18.9609 7.51945 20.0598 9.22778 20.0598C10.8736 20.0598 11.6965 18.9999 11.6965 16.8801V10.2942H13.5559V16.9661ZM15.4856 21.2473V19.5676C16.1627 20.0833 16.9101 20.3411 17.7278 20.3411C18.8215 20.3411 19.3684 20.0181 19.3684 19.3723C19.3684 19.19 19.3215 19.0364 19.2278 18.9114C19.134 18.7812 19.0064 18.6666 18.845 18.5676C18.6887 18.4687 18.5012 18.3801 18.2825 18.302C18.0689 18.2239 17.8293 18.1353 17.5637 18.0364C17.2356 17.9062 16.9387 17.7681 16.6731 17.6223C16.4127 17.4765 16.1939 17.3124 16.0168 17.1301C15.845 16.9426 15.7148 16.7317 15.6262 16.4973C15.5377 16.2629 15.4934 15.9895 15.4934 15.677C15.4934 15.2916 15.5846 14.953 15.7668 14.6614C15.9491 14.3645 16.1939 14.1171 16.5012 13.9192C16.8085 13.7161 17.1575 13.565 17.5481 13.4661C17.9387 13.3619 18.3424 13.3098 18.759 13.3098C19.4986 13.3098 20.1601 13.4218 20.7434 13.6458V15.2317C20.1809 14.8463 19.5351 14.6536 18.8059 14.6536C18.5767 14.6536 18.3684 14.677 18.1809 14.7239C17.9986 14.7708 17.8424 14.8359 17.7122 14.9192C17.5819 15.0025 17.4804 15.1041 17.4075 15.2239C17.3346 15.3385 17.2981 15.4661 17.2981 15.6067C17.2981 15.7786 17.3346 15.9244 17.4075 16.0442C17.4804 16.164 17.5872 16.2708 17.7278 16.3645C17.8736 16.453 18.0455 16.5364 18.2434 16.6145C18.4465 16.6874 18.6783 16.7681 18.9387 16.8567C19.2825 16.9973 19.5898 17.1405 19.8606 17.2864C20.1366 17.4322 20.371 17.5989 20.5637 17.7864C20.7564 17.9687 20.9049 18.1822 21.009 18.427C21.1132 18.6666 21.1653 18.953 21.1653 19.2864C21.1653 19.6926 21.0715 20.0468 20.884 20.3489C20.6965 20.651 20.4465 20.901 20.134 21.0989C19.8215 21.2968 19.4596 21.4426 19.0481 21.5364C18.6418 21.6353 18.2122 21.6848 17.759 21.6848C16.884 21.6848 16.1262 21.539 15.4856 21.2473ZM29.6653 17.9895H24.2122C24.233 18.7291 24.4596 19.2994 24.8918 19.7004C25.3293 20.1015 25.9283 20.302 26.6887 20.302C27.5429 20.302 28.3267 20.0468 29.0403 19.5364V20.9973C28.3111 21.4556 27.3476 21.6848 26.1497 21.6848C24.9726 21.6848 24.0481 21.3228 23.3762 20.5989C22.7096 19.8697 22.3762 18.8463 22.3762 17.5286C22.3762 16.2838 22.7434 15.2708 23.4778 14.4895C24.2174 13.703 25.134 13.3098 26.2278 13.3098C27.3215 13.3098 28.1679 13.6614 28.7668 14.3645C29.3658 15.0676 29.6653 16.0442 29.6653 17.2942V17.9895ZM27.9153 16.7083C27.9101 16.0572 27.7564 15.552 27.4543 15.1926C27.1523 14.828 26.7356 14.6458 26.2043 14.6458C25.6835 14.6458 25.2408 14.8359 24.8762 15.2161C24.5168 15.5963 24.2955 16.0937 24.2122 16.7083H27.9153ZM38.6653 21.4973H36.8528V20.1379H36.8215C36.2382 21.1692 35.3398 21.6848 34.1262 21.6848C33.1418 21.6848 32.3528 21.328 31.759 20.6145C31.1705 19.8958 30.8762 18.9192 30.8762 17.6848C30.8762 16.3619 31.2017 15.302 31.8528 14.5051C32.509 13.7083 33.3814 13.3098 34.47 13.3098C35.5481 13.3098 36.3319 13.7421 36.8215 14.6067H36.8528V9.65356H38.6653V21.4973ZM36.8762 17.8411V16.7942C36.8762 16.2265 36.6913 15.7447 36.3215 15.3489C35.9517 14.953 35.4804 14.7551 34.9075 14.7551C34.2304 14.7551 33.6965 15.0077 33.3059 15.5129C32.9205 16.0181 32.7278 16.7187 32.7278 17.6145C32.7278 18.427 32.9127 19.0702 33.2825 19.5442C33.6575 20.0129 34.1601 20.2473 34.7903 20.2473C35.4101 20.2473 35.9127 20.0208 36.2981 19.5676C36.6835 19.1093 36.8762 18.5338 36.8762 17.8411Z" fill="black"/>
<path d="M236.97 19.3179H235.126V12.0679C235.126 11.4741 235.163 10.7476 235.236 9.88818H235.204C235.09 10.3778 234.988 10.7293 234.9 10.9429L231.556 19.3179H230.275L226.923 11.0054C226.829 10.7606 226.73 10.3882 226.626 9.88818H226.595C226.637 10.3361 226.657 11.0679 226.657 12.0835V19.3179H224.939V8.11475H227.556L230.501 15.5757C230.725 16.1486 230.871 16.5757 230.939 16.8569H230.978C231.17 16.2684 231.327 15.8309 231.447 15.5444L234.447 8.11475H236.97V19.3179ZM245.673 19.3179H243.915V18.0679H243.884C243.332 19.0262 242.522 19.5054 241.454 19.5054C240.668 19.5054 240.051 19.2918 239.603 18.8647C239.16 18.4377 238.939 17.8726 238.939 17.1694C238.939 15.659 239.809 14.7788 241.548 14.5288L243.923 14.1929C243.923 13.0522 243.381 12.4819 242.298 12.4819C241.345 12.4819 240.486 12.8101 239.72 13.4663V11.8804C240.564 11.3804 241.538 11.1304 242.642 11.1304C244.663 11.1304 245.673 12.1252 245.673 14.1147V19.3179ZM243.923 15.3882L242.243 15.6226C241.723 15.6903 241.329 15.8179 241.064 16.0054C240.803 16.1877 240.673 16.5106 240.673 16.9741C240.673 17.3127 240.793 17.5913 241.032 17.8101C241.277 18.0236 241.603 18.1304 242.009 18.1304C242.561 18.1304 243.017 17.9377 243.376 17.5522C243.741 17.1616 243.923 16.672 243.923 16.0835V15.3882ZM254.579 11.3179L251.915 15.3647L254.548 19.3179H252.447L251.04 16.8413C250.952 16.6903 250.848 16.4976 250.728 16.2632H250.697C250.676 16.3101 250.566 16.5028 250.368 16.8413L248.939 19.3179H246.845L249.564 15.396L246.986 11.3179H249.095L250.478 13.9194C250.582 14.1121 250.684 14.3101 250.782 14.5132H250.806L252.595 11.3179H254.579Z" fill="#201F1E"/>
<path d="M4.27856 51.192V47.9694C5.40356 48.7897 6.71606 49.1998 8.21606 49.1998C9.16138 49.1998 9.89575 48.9967 10.4192 48.5905C10.9504 48.1842 11.2161 47.6178 11.2161 46.8912C11.2161 46.1412 10.8879 45.5631 10.2317 45.1569C9.58325 44.7506 8.68872 44.5475 7.5481 44.5475H6.03638V41.7115H7.43091C9.61841 41.7115 10.7122 40.985 10.7122 39.5319C10.7122 38.1647 9.87231 37.4811 8.19263 37.4811C7.06763 37.4811 5.97388 37.8444 4.91138 38.5709V35.5475C6.09106 34.9537 7.46606 34.6569 9.03638 34.6569C10.7551 34.6569 12.0911 35.0436 13.0442 35.817C14.0051 36.5905 14.4856 37.5944 14.4856 38.8287C14.4856 41.024 13.3723 42.399 11.1458 42.9537V43.0123C12.3333 43.1608 13.2708 43.5944 13.9583 44.3131C14.6458 45.024 14.9895 45.899 14.9895 46.9381C14.9895 48.5084 14.4153 49.7506 13.2668 50.6647C12.1184 51.5787 10.5325 52.0358 8.50903 52.0358C6.77466 52.0358 5.3645 51.7545 4.27856 51.192ZM23.1809 52.0358C19.1809 52.0358 17.1809 49.2272 17.1809 43.61C17.1809 40.6959 17.72 38.4772 18.7981 36.9537C19.884 35.4225 21.4543 34.6569 23.509 34.6569C27.4153 34.6569 29.3684 37.5123 29.3684 43.2233C29.3684 46.067 28.8333 48.2467 27.7629 49.7623C26.7004 51.278 25.1731 52.0358 23.1809 52.0358ZM23.345 37.4811C21.7434 37.4811 20.9426 39.4928 20.9426 43.5162C20.9426 47.3053 21.7278 49.1998 23.2981 49.1998C24.8293 49.1998 25.595 47.2467 25.595 43.3405C25.595 39.4342 24.845 37.4811 23.345 37.4811ZM50.7786 51.7428H47.0872V44.899C47.0872 43.1569 46.4465 42.2858 45.1653 42.2858C44.5559 42.2858 44.0598 42.5475 43.677 43.0709C43.2942 43.5944 43.1028 44.2467 43.1028 45.028V51.7428H39.3997V44.8287C39.3997 43.1334 38.7708 42.2858 37.5129 42.2858C36.8801 42.2858 36.3723 42.5358 35.9895 43.0358C35.6145 43.5358 35.427 44.2155 35.427 45.0748V51.7428H31.7239V39.7428H35.427V41.6178H35.4739C35.8567 40.9772 36.3918 40.4576 37.0793 40.0592C37.7747 39.653 38.5325 39.4498 39.3528 39.4498C41.0481 39.4498 42.2083 40.1959 42.8333 41.6881C43.7473 40.1959 45.0911 39.4498 46.8645 39.4498C49.4739 39.4498 50.7786 41.0592 50.7786 44.278V51.7428Z" fill="#0C8722"/>
<path d="M229.075 46.1772V46.2476H235.896V49.3179H224.833V46.4351L229.65 41.8296C230.618 40.8999 231.298 40.1226 231.689 39.4976C232.087 38.8647 232.286 38.2007 232.286 37.5054C232.286 35.9585 231.454 35.1851 229.79 35.1851C228.345 35.1851 226.962 35.7593 225.642 36.9077V33.6499C227.103 32.7046 228.751 32.2319 230.587 32.2319C232.306 32.2319 233.646 32.6655 234.607 33.5327C235.575 34.3921 236.06 35.5562 236.06 37.0249C236.06 38.9858 234.884 41.0132 232.532 43.1069L229.075 46.1772ZM250.439 49.3179H246.747V42.4976C246.747 40.7397 246.107 39.8608 244.825 39.8608C244.169 39.8608 243.638 40.1069 243.232 40.5991C242.825 41.0913 242.622 41.7163 242.622 42.4741V49.3179H238.919V31.5522H242.622V39.0991H242.669C243.575 37.7163 244.806 37.0249 246.361 37.0249C249.079 37.0249 250.439 38.6655 250.439 41.9468V49.3179Z" fill="#201F1E"/>
</svg>
